<?xml version="1.0" encoding="UTF-8" standalone="no"?>
<!-- Created with Inkscape (http://www.inkscape.org/) -->

<svg
   xmlns:dc="http://purl.org/dc/elements/1.1/"
   xmlns:cc="http://creativecommons.org/ns#"
   xmlns:rdf="http://www.w3.org/1999/02/22-rdf-syntax-ns#"
   xmlns:svg="http://www.w3.org/2000/svg"
   xmlns="http://www.w3.org/2000/svg"
   xmlns:sodipodi="http://sodipodi.sourceforge.net/DTD/sodipodi-0.dtd"
   xmlns:inkscape="http://www.inkscape.org/namespaces/inkscape"
   width="250"
   height="250"
   id="svg5612"
   version="1.1"
   inkscape:version="0.48.2 r9819"
   sodipodi:docname="New document 8">
  <defs
     id="defs5614" />
  <sodipodi:namedview
     id="base"
     pagecolor="#ffffff"
     bordercolor="#666666"
     borderopacity="1.0"
     inkscape:pageopacity="0.0"
     inkscape:pageshadow="2"
     inkscape:zoom="1"
     inkscape:cx="-156.42857"
     inkscape:cy="200"
     inkscape:document-units="px"
     inkscape:current-layer="layer1"
     showgrid="false"
     inkscape:window-width="1920"
     inkscape:window-height="1004"
     inkscape:window-x="-4"
     inkscape:window-y="54"
     inkscape:window-maximized="1" />
  <metadata
     id="metadata5617">
    <rdf:RDF>
      <cc:Work
         rdf:about="">
        <dc:format>image/svg+xml</dc:format>
        <dc:type
           rdf:resource="http://purl.org/dc/dcmitype/StillImage" />
        <dc:title></dc:title>
      </cc:Work>
    </rdf:RDF>
  </metadata>
  <g
     inkscape:label="Layer 1"
     inkscape:groupmode="layer"
     id="layer1"
     transform="translate(0,-802.36218)">
    <path
       style="fill:#0069a7;fill-opacity:1"
       d="M 90.054704,973.99942 C 81.39599,972.91697 72.300836,967.7925 68.57304,961.89597 c -0.633989,-1.00281 -1.201667,-1.89013 -1.261523,-1.97182 -0.05981,-0.0818 -0.984006,0.38009 -2.053691,1.0262 -1.069692,0.6461 -2.674208,1.48737 -3.565608,1.86947 -4.30484,1.84536 -12.488415,2.46729 -17.000649,1.292 -7.07272,-1.84222 -13.169411,-7.59493 -15.659894,-14.77636 -1.249208,-3.60217 -1.521704,-10.75955 -0.589074,-15.47233 0.732553,-3.70169 3.051678,-8.9646 5.034301,-11.42457 4.739291,-5.88036 13.956266,-9.80796 25.37907,-10.81473 2.674171,-0.23568 5.425458,-0.51045 6.113966,-0.61059 l 1.251812,-0.18205 -1.04922,-2.12103 c -0.908631,-1.83677 -1.049235,-2.64211 -1.049235,-6.00926 0,-3.83479 0.02694,-3.94251 1.961655,-7.83881 2.386674,-4.80655 5.329176,-7.91358 9.442343,-9.97034 2.561881,-1.28105 3.060008,-1.38709 6.42385,-1.36775 2.951748,0.017 3.977374,0.19274 5.38251,0.92245 0.954738,0.4958 1.911975,0.79263 2.127175,0.65963 0.215206,-0.13294 0.391285,-1.03963 0.391285,-2.01472 0,-4.67777 2.734102,-12.63953 5.830663,-16.97897 2.570617,-3.60239 5.507834,-6.09895 9.381264,-7.9738 4.02062,-1.94608 7.73752,-2.78809 12.34896,-2.7975 13.37457,-0.0272 24.32637,11.15994 26.76726,27.34251 0.2689,1.78279 0.52578,3.28966 0.57084,3.34858 0.0451,0.0589 1.24925,-0.24952 2.67596,-0.68549 3.52541,-1.07723 8.82487,-1.58369 12.65424,-1.20935 6.95625,0.68001 12.28493,3.27931 16.21512,7.90965 3.88994,4.58294 5.79967,8.97598 7.00881,16.12269 l 0.71498,4.22595 1.63864,-0.83786 c 6.7889,-3.47124 18.31181,-2.11995 27.0172,3.1683 3.1208,1.89579 8.03632,6.54697 9.92302,9.38943 4.84957,7.30617 5.02045,16.50434 0.47606,25.62514 -1.36725,2.74412 -2.46234,4.19506 -5.38881,7.13987 -3.13495,3.15458 -4.23469,3.96797 -7.50915,5.55382 -2.10996,1.02188 -4.74795,2.07008 -5.8622,2.32934 -3.40844,0.79305 -8.89339,0.63076 -12.91848,-0.38226 -4.63962,-1.16767 -6.84166,-2.30851 -9.49258,-4.91794 -1.18122,-1.16273 -2.195,-2.04832 -2.25285,-1.96797 -1.55545,2.16054 -5.58247,6.77007 -7.13016,8.16157 -8.89561,7.99789 -21.3238,10.03769 -31.22714,5.12509 -5.26348,-2.61093 -10.36505,-7.30007 -13.24343,-12.17277 -0.38025,-0.6437 -0.78879,-1.16495 -0.90787,-1.15833 -0.11902,0.006 -0.85469,1.1289 -1.63465,2.49392 -5.92019,10.36094 -20.08387,15.97574 -35.453106,14.05444 z m 16.207136,-4.83053 c 4.54771,-1.09234 10.25776,-3.99578 12.73998,-6.47801 2.9108,-2.91079 4.37709,-5.23123 6.09419,-9.64419 l 1.52051,-3.90774 1.93136,3.84616 c 4.22358,8.41094 9.79307,13.41464 17.36632,15.60215 2.44239,0.70548 7.46213,0.88108 10.27007,0.35928 4.52194,-0.84028 10.55187,-4.41004 14.0824,-8.33684 1.81632,-2.02019 5.47664,-7.35203 7.35869,-10.71912 l 0.86248,-1.54305 1.69847,3.37811 c 2.91901,5.80562 6.72533,8.75887 12.58781,9.76668 3.42592,0.58894 7.50053,-0.20786 11.74314,-2.29639 3.48425,-1.71525 8.82612,-6.72017 10.61736,-9.94768 2.9851,-5.37863 3.91704,-11.85826 2.41621,-16.79943 -2.19649,-7.23147 -8.815,-13.46128 -17.30961,-16.29306 -4.64202,-1.54747 -7.68167,-1.87372 -11.73654,-1.2597 -3.69329,0.55928 -4.88638,1.08453 -7.60497,3.34805 -1.06745,0.88878 -2.03703,1.51971 -2.15464,1.40209 -0.11765,-0.11764 -0.38842,-2.10075 -0.6018,-4.40697 -1.26136,-13.63353 -7.68249,-22.59363 -17.68373,-24.67606 -5.05065,-1.05162 -12.43977,-0.006 -18.44071,2.61123 l -1.51942,0.6625 0,-3.06137 c 0,-7.9449 -3.29314,-16.31575 -8.39453,-21.33816 -4.58645,-4.51542 -9.17659,-6.51272 -14.85906,-6.46555 -5.44151,0.0451 -10.33343,1.84938 -14.11412,5.20552 -5.143854,4.56624 -8.459353,11.88424 -8.776231,19.37089 -0.05651,1.33573 -0.226846,3.40133 -0.378474,4.5903 l -0.275678,2.16168 -1.82331,-1.39322 c -4.601358,-3.516 -8.100695,-4.11811 -12.435598,-2.13977 -6.083963,2.77656 -10.644902,10.8477 -9.431881,16.69082 0.404245,1.94722 0.835409,2.6332 3.258096,5.18368 l 2.792202,2.93946 -6.373945,0.25318 c -14.166114,0.56271 -22.133566,2.91124 -27.575302,8.12823 -3.045959,2.92015 -4.623038,5.79728 -5.746553,10.48368 -2.344565,9.77951 0.356051,18.49646 7.222652,23.3131 3.63017,2.54643 6.767774,3.43974 11.432613,3.25503 5.84571,-0.23148 9.20836,-2.09332 13.237319,-7.32926 l 1.852728,-2.40775 1.220345,3.18211 c 0.671203,1.75016 1.726885,3.92524 2.346006,4.83353 1.662399,2.4389 5.540547,5.86909 8.290131,7.33254 6.323845,3.36584 16.455176,4.42645 24.29502,2.54332 z"
       id="path5599"
       inkscape:connector-curvature="0" />
  </g>
</svg>
